<svg  viewBox="0 0 148 527" fill="none" xmlns="http://www.w3.org/2000/svg">
<path fill-rule="evenodd" clip-rule="evenodd" d="M147.431 61.3493C143.775 60.8044 140.036 60.522 136.231 60.522C94.4262 60.522 60.5217 94.5032 60.5217 136.232V526.9H59.2944V136.232C59.2944 93.8128 93.8125 59.2947 136.231 59.2947C140.034 59.2947 143.774 59.5721 147.431 60.1078V61.3493Z" fill="#9DD1D6"/>
<path fill-rule="evenodd" clip-rule="evenodd" d="M147.431 81.4387C143.811 80.7001 140.066 80.3123 136.231 80.3123C105.395 80.3123 80.2351 105.395 80.2351 136.232V526.9H79.0845V136.232C79.0845 104.705 104.705 79.085 136.231 79.085C140.063 79.085 143.808 79.4635 147.431 80.1852V81.4387Z" fill="#9DD1D6"/>
<path fill-rule="evenodd" clip-rule="evenodd" d="M147.431 41.3829C143.757 40.9527 140.02 40.7315 136.231 40.7315C83.5338 40.7315 40.7313 83.534 40.7313 136.232V526.9H39.504V136.232C39.504 82.9203 82.9201 39.5809 136.231 39.5809C140.019 39.5809 143.756 39.7996 147.431 40.2252V41.3829Z" fill="#9DD1D6"/>
<path fill-rule="evenodd" clip-rule="evenodd" d="M147.431 21.4799C143.745 21.1234 140.009 20.9409 136.232 20.9409C72.6416 20.9409 20.9412 72.6414 20.9412 136.231V526.9H19.7906V136.231C19.7906 72.0277 72.028 19.7903 136.232 19.7903C140.009 19.7903 143.745 19.9711 147.431 20.3245V21.4799Z" fill="#9DD1D6"/>
<path fill-rule="evenodd" clip-rule="evenodd" d="M147.431 1.61043C143.737 1.3059 140.002 1.1506 136.232 1.1506C61.7494 1.1506 1.15091 61.7491 1.15091 136.232V526.9H0.000305176V136.232C0.000305176 61.1354 61.059 0 136.232 0C140.002 0 143.737 0.154088 147.431 0.456294V1.61043Z" fill="#9DD1D6"/>
</svg>
